<svg xmlns="http://www.w3.org/2000/svg" version="1.1" xmlns:xlink="http://www.w3.org/1999/xlink" xmlns:svgjs="http://svgjs.dev/svgjs" width="1000" height="707" viewBox="0 0 1000 707"><g transform="matrix(1,0,0,1,-0.6060606060606233,0)"><svg viewBox="0 0 396 280" data-background-color="#ffffff" preserveAspectRatio="xMidYMid meet" height="707" width="1000" xmlns="http://www.w3.org/2000/svg" xmlns:xlink="http://www.w3.org/1999/xlink"><g id="tight-bounds" transform="matrix(1,0,0,1,0.2400000000000091,0)"><svg viewBox="0 0 395.52 280" height="280" width="395.52"><g><svg viewBox="0 0 395.52 280" height="280" width="395.52"><g><svg viewBox="0 0 395.52 280" height="280" width="395.52"><g><svg viewBox="0 0 395.52 280" height="280" width="395.52"><g><svg viewBox="0 0 395.52 280" height="280" width="395.52"><g transform="matrix(1,0,0,1,145.46611168380065,74.00336708925556)"><svg viewBox="0 0 104.5877766323987 131.99326582148888" height="131.99326582148888" width="104.5877766323987"><g><svg xmlns="http://www.w3.org/2000/svg" xmlns:xlink="http://www.w3.org/1999/xlink" version="1.1" x="0" y="0" viewBox="-250.70001220703125 140.98709106445312 63.399993896484375 80.01290893554688" enable-background="new -269 131 100 100" xml:space="preserve" height="131.99326582148888" width="104.5877766323987" class="icon-o-0" data-fill-palette-color="accent" id="o-0"><path d="M-200.1 163.7l-1-0.8c-1.2-1-3.1-0.6-3.8 0.8-0.3 0.7-0.6 7.7-0.6 8.9 0 0.2 0 0.6 0 0.7 0 1-0.9 1.8-1.9 1.6-0.8-0.1-1.4-0.9-1.4-1.7-0.1-12-3.7-20.4-10.5-26.7-4.1-3.8-9-7.2-10.5-4.6-0.4 0.7 0.2 2.2 0.9 4.1 1.4 4.3-2.9 11.2-9 18.1-5.7 6.5-12.8 14.5-12.8 26.4 0 16 15.1 30.5 31.7 30.5 16.6 0 31.7-14.5 31.7-30.5C-187.3 180.4-192.1 170.4-200.1 163.7zM-219 215.2c-7.2 0-13.1-5.9-13.1-13.1 0-3.6 1.4-6.8 3.8-9.2l7.2-8.6c1.1-1.3 3.2-1.3 4.3 0l7.2 8.6c2.3 2.4 3.8 5.6 3.8 9.2C-205.9 209.3-211.8 215.2-219 215.2z" fill="#ee3e38" data-fill-palette-color="accent"></path></svg></g></svg></g><path d="M86.446 113.626L80.947 111.519 81.589 109.841 66.489 104.055 65.846 105.733 60.346 103.626 66.246 88.226C67.351 85.343 68.789 83.367 70.559 82.3 72.323 81.23 74.538 81.205 77.204 82.227V82.227C78.702 82.801 79.881 83.602 80.741 84.63 81.61 85.654 82.042 86.806 82.036 88.087V88.087L82.385 88.178C83.542 86.163 85.274 85.597 87.579 86.48V86.48L90.161 87.469 90.768 85.885 96.268 87.992 92.193 98.628 84.307 95.606C83.437 95.273 82.728 95.151 82.181 95.241 81.636 95.324 81.181 95.609 80.816 96.097 80.451 96.584 80.076 97.331 79.69 98.338V98.338L85.19 100.445 86.036 98.236 91.536 100.343ZM75.589 96.766L76.281 94.958C76.529 94.311 76.545 93.758 76.329 93.298 76.105 92.841 75.623 92.471 74.884 92.188V92.188L73.681 91.727C72.942 91.444 72.336 91.397 71.864 91.587 71.39 91.783 71.029 92.204 70.782 92.851V92.851L70.089 94.659ZM107.67 59.729L100.389 68.682 95.82 64.966 103.101 56.013ZM136.004 46.445C134.073 47.7 132.142 48.722 130.21 49.51 128.283 50.295 126.719 50.776 125.517 50.955V50.955L121.637 44.988 128.264 40.678C128.671 41.303 129.104 41.664 129.564 41.761 130.034 41.861 130.64 41.669 131.382 41.187V41.187C132.001 40.784 132.386 40.399 132.536 40.032 132.682 39.659 132.632 39.282 132.385 38.903V38.903C132.175 38.579 131.864 38.389 131.453 38.33 131.042 38.272 130.436 38.329 129.635 38.501V38.501L126.458 39.292C123.681 39.892 121.432 39.937 119.712 39.429 117.998 38.916 116.507 37.687 115.241 35.74V35.74C113.699 33.369 113.305 31.06 114.06 28.815 114.815 26.57 117.008 24.267 120.64 21.905V21.905C122.386 20.769 124.141 19.878 125.903 19.232 127.672 18.582 129.216 18.241 130.536 18.208V18.208L134.041 23.597 128.016 27.515C127.363 26.511 126.414 26.413 125.17 27.222V27.222C124.567 27.614 124.19 27.967 124.037 28.281 123.883 28.595 123.932 28.944 124.182 29.329V29.329C124.404 29.67 124.725 29.846 125.145 29.858 125.566 29.87 126.179 29.769 126.985 29.555V29.555L130.192 28.755C132.794 28.095 134.957 28.026 136.678 28.55 138.406 29.07 139.875 30.261 141.087 32.125V32.125C142.749 34.68 143.143 37.166 142.27 39.583 141.401 42.006 139.312 44.293 136.004 46.445ZM181.173 0L183.06 8.487 177.028 9.828 176.419 7.09 174.168 7.591 177.678 23.377 180.134 22.831 181.412 28.58 166.688 31.853 165.41 26.104 167.865 25.558 164.356 9.772 162.105 10.273 162.714 13.011 156.682 14.352 154.795 5.865ZM223.802 1.771L227.002 24.429 228.428 24.614 227.673 30.455 213.704 28.649 214.459 22.808 216.598 23.084 216.392 20.159 211.551 19.533 210.608 22.31 212.747 22.587 211.991 28.427 199.805 26.852 200.56 21.011 201.985 21.195 210.833 0.095ZM215.193 8.952L212.822 15.853 216.099 16.276 215.55 8.998ZM243.161 35.828L246.031 30.685 247.6 31.561 255.463 17.475 253.894 16.599 256.784 11.422 269.518 18.53C273.011 20.48 275.255 22.986 276.25 26.049 277.237 29.115 276.528 32.801 274.125 37.107V37.107C271.721 41.413 268.956 43.95 265.829 44.72 262.699 45.48 259.387 44.885 255.895 42.936V42.936ZM256.386 36.465L258.199 37.477C258.914 37.876 259.554 37.986 260.119 37.806 260.684 37.626 261.189 37.138 261.634 36.342V36.342L266.917 26.876C267.784 25.324 267.505 24.151 266.081 23.357V23.357L264.268 22.345ZM289.286 70.649L280.12 60.525 284.486 56.573 285.692 57.905 297.68 47.051 296.474 45.719 300.84 41.766 310.006 51.89 305.64 55.842 304.434 54.51 292.446 65.364 293.652 66.696ZM332.595 92.536L314.738 106.846 315.307 108.166 309.898 110.496 304.326 97.56 309.735 95.23 310.588 97.21 313 95.542 311.069 91.058 308.199 91.664 309.052 93.644 303.643 95.974 298.782 84.688 304.191 82.358 304.76 83.678 327.422 80.526ZM322.028 88.795L314.883 90.274 316.19 93.309 322.17 89.125ZM67.639 180.471L73.237 178.313 73.894 180.018 89.244 174.102 88.587 172.397 94.185 170.24 100.223 185.907C101.353 188.838 101.613 191.309 101.005 193.319 100.396 195.33 98.738 196.857 96.03 197.9V197.9C94.503 198.489 93.066 198.693 91.72 198.513 90.365 198.329 89.253 197.748 88.385 196.771V196.771L88.054 196.941C88.555 199.258 87.635 200.868 85.294 201.77V201.77L82.667 202.782 83.285 204.385 77.687 206.542 73.519 195.728 81.539 192.637C82.427 192.295 83.047 191.906 83.4 191.471 83.75 191.029 83.9 190.5 83.848 189.886 83.794 189.265 83.57 188.442 83.175 187.417V187.417L77.577 189.574 78.446 191.829 72.848 193.986ZM87.329 185.816L88.04 187.66C88.294 188.319 88.661 188.744 89.142 188.937 89.623 189.129 90.239 189.081 90.99 188.791V188.791L92.22 188.318C92.971 188.028 93.457 187.652 93.678 187.189 93.905 186.723 93.892 186.161 93.638 185.503V185.503L92.927 183.659ZM103.381 230.918L95.972 221.825 100.623 218.036 108.032 227.129ZM124.45 258.119C122.487 256.841 120.741 255.467 119.213 253.997 117.688 252.52 116.594 251.261 115.931 250.218V250.218L119.878 244.152 126.622 248.54C126.208 249.175 126.051 249.728 126.15 250.198 126.255 250.671 126.684 251.153 127.437 251.643V251.643C128.073 252.056 128.591 252.254 128.992 252.237 129.394 252.229 129.722 252.03 129.976 251.639V251.639C130.19 251.31 130.24 250.941 130.125 250.533 130.015 250.128 129.711 249.589 129.212 248.915V248.915L127.175 246.28C125.47 243.947 124.498 241.878 124.26 240.071 124.025 238.26 124.552 236.364 125.841 234.383V234.383C127.412 231.968 129.398 230.648 131.799 230.424 134.2 230.199 137.249 231.29 140.948 233.697V233.697C142.727 234.854 144.282 236.12 145.611 237.493 146.941 238.866 147.896 240.162 148.476 241.382V241.382L144.905 246.87 138.772 242.88C139.436 241.859 139.135 240.937 137.868 240.113V240.113C137.255 239.714 136.771 239.506 136.416 239.49 136.058 239.479 135.754 239.666 135.503 240.051V240.051C135.275 240.402 135.243 240.775 135.408 241.168 135.569 241.567 135.915 242.097 136.444 242.759V242.759L138.515 245.416C140.2 247.561 141.156 249.545 141.383 251.368 141.614 253.185 141.111 255.045 139.873 256.947V256.947C138.185 259.541 136.037 260.933 133.427 261.125 130.812 261.313 127.819 260.311 124.45 258.119ZM189.229 251.5L187.302 260.142 181.164 258.774 181.786 255.987 179.506 255.479 175.926 271.536 178.42 272.092 177.115 277.947 162.12 274.604 163.426 268.749 165.93 269.307 169.509 253.25 167.22 252.74 166.598 255.526 160.46 254.158 162.387 245.516ZM219.17 249.117L228.153 270.6 229.608 270.413 230.371 276.364 216.153 278.186 215.39 272.236 217.559 271.958 216.612 269.13 211.682 269.762 211.469 272.738 213.648 272.459 214.41 278.41 202.004 280 201.241 274.049 202.687 273.864 205.971 250.809ZM212.541 258.411L211.981 265.819 215.318 265.391 212.908 258.364ZM252.644 268.772L249.725 263.53 251.321 262.642 243.331 248.296 241.735 249.185 238.801 243.917 251.778 236.69C255.33 234.711 258.698 234.111 261.882 234.89 265.065 235.669 267.879 238.253 270.324 242.642V242.642C272.769 247.032 273.484 250.785 272.47 253.902 271.456 257.018 269.173 259.566 265.621 261.544V261.544ZM260.269 257.658L262.126 256.624C262.847 256.222 263.281 255.729 263.428 255.145 263.58 254.557 263.431 253.859 262.981 253.051V253.051L257.609 243.405C256.732 241.83 255.569 241.445 254.121 242.252V242.252L252.264 243.286ZM304.148 229.833L294.803 240.116 290.363 236.082 291.591 234.73 279.417 223.666 278.188 225.018 273.748 220.983 283.094 210.7 287.533 214.734 286.305 216.086 298.479 227.15 299.708 225.798ZM299.235 180.124L322.289 183.391 322.873 182.045 328.377 184.433 322.671 197.583 317.168 195.195 318.038 193.19 315.124 192.557 313.145 197.117 315.594 198.821 316.468 196.807 321.972 199.195 316.993 210.669 311.49 208.281 312.07 206.944 293.938 192.33ZM303.831 190.573L309.91 194.843 311.249 191.757 303.978 190.234ZM61.88 143.429C61.88 137.427 66.746 132.562 72.748 132.562 78.75 132.562 83.616 137.427 83.616 143.429 83.616 149.431 78.75 154.297 72.748 154.297 66.746 154.297 61.88 149.431 61.88 143.429ZM313.438 143.429C313.438 137.427 318.304 132.562 324.306 132.562 330.308 132.562 335.174 137.427 335.174 143.429 335.174 149.431 330.308 154.297 324.306 154.297 318.304 154.297 313.438 149.431 313.438 143.429Z" fill="#ee3e38" data-fill-palette-color="primary"></path></svg></g></svg></g></svg></g></svg></g><defs></defs></svg><rect width="395.52" height="280" fill="none" stroke="none" visibility="hidden"></rect></g></svg></g></svg>