<?xml version="1.0" encoding="utf-8"?>
<!-- Uploaded to: SVG Repo, www.svgrepo.com, Generator: SVG Repo Mixer Tools -->
<svg width="800px" height="800px" viewBox="0 0 1024 1024" class="icon"  version="1.1" xmlns="http://www.w3.org/2000/svg"><path d="M532.017982 430.582687l-2.236166-0.656311-5.196218-1.053578c-62.881917-18.350073-94.783112-41.833907-94.783112-69.58939 0-35.583087 35.057834-64.460748 78.207433-64.460748 32.558529 0 61.171005 16.313565 72.877086 41.439711 12.433039 26.638424 39.402179 43.806934 68.737517 43.806933 11.113251 0 21.836402-2.367223 32.030205-7.105764 37.822324-17.690691 54.266946-62.877822 36.636664-100.76465-26.308733-56.304478-75.641576-98.269442-136.152175-117.410978-7.301326-34.235654-37.754747-59.985346-74.129297-59.985346-36.704241 0-67.353224 26.176652-74.327931 60.776809-91.031596 29.46742-155.425792 110.894972-155.425793 203.705057 0 72.024189 36.505607 168.185451 210.480107 216.993041l2.17166 0.589758 4.472331 0.854944c93.399843 27.298831 102.280001 39.071464 102.280001 80.377046 0 40.058489-38.280001 72.681524-85.377702 72.681524-45.187131 0-70.576415-18.613211-85.111491-62.289088-10.328955-31.043179-39.203545-51.895628-71.893132-51.895628a75.337482 75.337482 0 0 0-23.877006 3.882573c-19.206041 6.378806-34.727119 19.862351-43.803862 37.95031-9.143296 18.087958-10.59107 38.674196-4.209192 57.883309 26.244229 78.995824 79.126882 132.666869 151.215575 154.700882 8.419409 32.626106 38.148943 56.829731 73.405411 56.829731 34.596061 0 63.867919-23.347657 72.877086-55.118819 98.468076-28.019646 168.320604-114.121234 168.320604-214.625818 0-164.570112-130.69589-202.455917-217.188603-227.51551z" fill="#27323A" /><path d="M533.268146 830.62697v21.442206c0 13.945318-11.314957 25.257203-25.257203 25.257203-13.945318 0-25.257203-11.311885-25.257203-25.257203v-22.230598c-73.274353-9.406434-126.551202-54.462508-151.41421-129.44675-4.407826-13.285936 2.761419-27.560945 15.98285-31.9657 13.221431-4.407826 27.560945 2.761419 31.9657 16.047355 21.311149 64.265186 66.040603 96.820644 132.99656 96.820644 74.917689 0 135.893132-55.249876 135.893132-123.196954 0-83.599213-50.909626-103.330507-141.08935-129.574736l-4.73547-0.854944C387.181212 495.307598 328.772649 438.673429 328.772649 359.283408c0-83.272593 67.158686-151.677348 153.981091-163.124386v-25.583822c0-13.945318 11.311885-25.257203 25.257203-25.257204 13.942246 0 25.257203 11.311885 25.257203 25.257204v24.927512c61.234486 8.025213 114.315773 44.726383 139.243285 98.070808 5.856624 12.696178 0.397268 27.692002-12.231334 33.613131-12.696178 5.920105-27.692002 0.394196-33.545555-12.234406-20.060985-42.884413-66.629338-70.643992-118.724623-70.643992-70.970611 0-128.722863 51.569008-128.722863 114.976179 0 54.068312 43.675876 92.941143 133.458333 118.788104l5.196218 0.987025c84.717296 24.537412 180.750572 52.3574 180.750571 179.03966 0 89.190651-72.485962 162.791623-165.424032 172.527749z" fill="#FFFFFF" /><path d="M479.067752 247.49868c9.338858-1.943334 18.942902-3.192474 28.942167-3.192474 10.851137 0 21.343913 1.481562 31.504951 3.751516v-51.340682c-2.105108-0.360408-4.14264-0.919449-6.246724-1.215352v-24.927512c0-13.945318-11.314957-25.257203-25.257203-25.257204-13.945318 0-25.257203 11.311885-25.257203 25.257204v25.583822c-1.282928 0.135153-2.434799 0.59283-3.68394 0.791464v50.549218zM507.087398 528.522437c11.480826 3.32046 22.267458 6.543651 32.427472 9.799607v-52.916441c-7.23375-2.168589-14.436783-4.307486-21.573263-6.348089l-5.196218-0.987026a425.693634 425.693634 0 0 1-33.676613-11.244309v53.209273c7.695522 2.565857 14.995824 5.297583 23.284176 7.631017l4.734446 0.855968zM539.51487 778.794823c-8.813605 1.612619-17.889324 2.49828-27.231254 2.49828-11.837138 0-22.755851-1.410914-33.215864-3.451517v51.273105c1.24914 0.164846 2.401011 0.525253 3.68394 0.723887v22.230598c0 13.945318 11.311885 25.257203 25.257203 25.257203 13.942246 0 25.257203-11.311885 25.257203-25.257203v-21.442206c2.138896-0.263139 4.111923-0.922521 6.246725-1.24914v-50.583007z" fill="#FFFFFF" /><path d="M482.752716 778.599261c-50.612699-8.550466-85.474971-39.927432-103.46566-94.126802-4.404755-13.285936-18.744269-20.455181-31.9657-16.047355-13.221431 4.404755-20.3917 18.680788-15.98285 31.9657 24.864031 74.985266 78.14088 120.041339 151.41421 129.44675v-51.238293z" fill="#79CCBF" /><path d="M482.752716 521.221111v-52.984018c-69.458333-25.520342-103.46566-61.332779-103.46566-108.954709 0-55.644072 44.564609-102.148943 103.46566-112.672436V196.159022c-86.822404 11.447038-153.98109 79.850769-153.98109 163.124386 0 74.586974 52.226343 128.786344 153.98109 161.937703zM660.280097 327.184603c12.628602-5.920105 18.087958-20.916953 12.231334-33.613131-24.927512-53.344425-78.008799-90.045595-139.243285-98.070808v51.306894c41.435615 7.364807 76.725871 32.359896 93.466396 68.141616 5.852529 12.629625 20.849377 18.156558 33.545555 12.235429z" fill="#F4CE73" /><path d="M533.268146 483.532916v52.882653c73.600973 23.021038 114.908602 46.631833 114.908602 121.681604 0 61.436191-49.990177 112.016126-114.908602 121.256691v51.273106c92.938071-9.736126 165.424033-83.337098 165.424032-172.529797 0-119.08503-84.883165-150.82138-165.424032-174.564257z" fill="#79CCBF" /></svg>